<?xml version="1.0" standalone="no"?>
<!DOCTYPE svg PUBLIC "-//W3C//DTD SVG 20010904//EN"
 "http://www.w3.org/TR/2001/REC-SVG-20010904/DTD/svg10.dtd">
<svg version="1.0" xmlns="http://www.w3.org/2000/svg"
 width="650.000000pt" height="650.000000pt" viewBox="0 0 650.000000 650.000000"
 preserveAspectRatio="xMidYMid meet">
<metadata>
Created by potrace 1.14, written by Peter Selinger 2001-2017
</metadata>
<g transform="translate(0.000000,650.000000) scale(0.100000,-0.100000)"
fill="#000000" stroke="none">
<path d="M3045 6123 c-228 -19 -369 -42 -558 -94 -425 -115 -784 -318 -1130
-640 -142 -133 -254 -269 -388 -469 -261 -391 -408 -805 -459 -1290 -22 -218
-5 -636 35 -850 61 -322 192 -658 363 -931 102 -163 170 -252 317 -417 265
-295 593 -534 936 -681 132 -56 349 -123 462 -142 l77 -13 0 -203 c0 -187 1
-203 18 -203 9 0 283 -1 607 -2 l590 -2 3 227 2 226 43 11 c572 143 1099 509
1479 1025 290 396 466 862 518 1379 16 151 7 561 -14 704 -67 442 -236 885
-459 1204 -473 676 -1184 1082 -2024 1157 -112 10 -322 12 -418 4z m505 -263
c419 -53 810 -208 1165 -464 542 -392 880 -957 992 -1657 25 -162 25 -585 0
-749 -47 -303 -122 -547 -243 -790 -159 -321 -359 -577 -635 -814 -257 -220
-460 -336 -774 -441 l-160 -54 -3 53 c-3 51 0 57 53 132 71 99 134 227 177
360 18 57 36 104 41 104 4 0 7 -5 7 -10 0 -12 109 -190 116 -190 3 0 39 25 80
56 l75 55 -20 32 c-12 18 -27 31 -33 29 -7 -2 -10 0 -6 3 11 11 -11 47 -24 39
-6 -4 -8 -3 -5 3 6 9 -35 75 -44 70 -2 -1 -3 0 -2 2 6 10 -20 41 -33 41 -28 0
-94 -54 -104 -85 l-10 -30 6 30 c3 17 8 192 11 391 5 315 3 368 -11 417 -24
82 -69 136 -149 176 -58 30 -80 35 -155 39 -86 4 -87 5 -133 48 -60 55 -136
79 -225 71 l-62 -6 -7 102 c-8 122 -33 185 -97 248 -85 83 -178 106 -301 74
-112 -29 -187 -86 -235 -179 -34 -67 -41 -196 -18 -347 22 -147 21 -250 -3
-297 -10 -20 -60 -95 -110 -167 -112 -159 -196 -319 -217 -415 -14 -62 -15
-84 -4 -163 16 -119 44 -219 81 -288 32 -60 176 -232 203 -242 13 -5 16 -24
16 -107 0 -57 -4 -100 -10 -100 -30 0 -293 75 -395 113 -291 107 -564 283
-813 521 -358 345 -605 771 -723 1251 -65 265 -88 656 -55 935 62 515 285
1008 638 1410 122 140 338 320 522 437 338 215 709 335 1126 367 88 6 417 -3
510 -14z m-352 -2864 c37 -19 68 -55 87 -98 12 -29 15 -80 15 -235 0 -211 12
-362 32 -409 l12 -29 3 25 c30 246 42 288 87 328 49 43 96 49 154 20 60 -29
89 -73 97 -146 4 -31 10 -68 14 -82 8 -24 9 -23 20 16 18 65 71 104 143 104
54 0 106 -27 136 -70 21 -32 22 -39 22 -304 0 -302 -9 -387 -61 -551 -45 -145
-99 -242 -176 -319 -119 -119 -189 -132 -306 -59 -35 22 -37 22 -28 4 16 -29
74 -61 155 -86 l71 -22 3 -236 2 -237 -355 0 -355 0 0 240 0 239 83 39 c103
48 140 84 54 52 -76 -28 -106 -24 -133 20 -33 53 -67 84 -143 129 -124 73
-169 154 -178 316 -8 132 10 187 126 398 l98 177 7 -48 c14 -107 115 -242 181
-242 30 0 33 -3 40 -37 5 -27 20 -50 51 -79 43 -41 74 -103 74 -149 0 -16 -29
-51 -90 -111 -80 -78 -106 -114 -82 -114 26 0 162 119 162 142 0 5 5 8 11 8 7
0 10 -30 7 -92 -3 -80 -8 -103 -35 -161 -34 -71 -24 -79 22 -17 46 62 69 160
70 291 0 111 -1 117 -33 178 -18 35 -36 85 -39 110 -5 41 -2 51 22 79 44 52
89 69 205 79 132 10 316 10 355 0 l30 -8 -25 21 c-50 41 -111 50 -323 50 -128
0 -214 -4 -240 -12 -40 -12 -119 -78 -129 -108 -4 -11 -21 0 -63 40 -96 92
-95 84 -95 460 0 204 4 340 11 365 30 111 141 175 227 131z"/>
<path d="M3100 5730 c-19 -19 -20 -33 -20 -292 0 -150 4 -278 8 -285 13 -20
55 -30 89 -21 48 13 53 40 53 322 0 288 -2 296 -71 296 -26 0 -46 -7 -59 -20z"/>
<path d="M3276 5728 c-14 -19 -16 -63 -16 -275 0 -245 5 -298 33 -315 25 -16
84 -8 103 13 17 19 19 42 22 267 2 136 0 257 -3 270 -15 61 -106 87 -139 40z"/>
<path d="M3580 5666 c0 -49 11 -64 30 -42 17 22 9 80 -12 84 -15 3 -18 -4 -18
-42z"/>
<path d="M2860 5656 c0 -28 5 -46 14 -49 21 -8 26 2 26 50 0 36 -3 43 -20 43
-17 0 -20 -7 -20 -44z"/>
<path d="M2598 5645 c-10 -10 15 -95 28 -95 21 0 25 18 14 60 -10 36 -27 50
-42 35z"/>
<path d="M3830 5630 c-12 -23 -13 -80 -1 -80 14 0 28 23 35 56 8 38 -17 56
-34 24z"/>
<path d="M2353 5559 c-21 -21 22 -110 45 -95 7 4 6 21 -5 51 -17 50 -25 59
-40 44z"/>
<path d="M4062 5527 c-16 -44 -15 -57 3 -57 15 0 45 49 45 75 0 29 -36 16 -48
-18z"/>
<path d="M2100 5449 c-15 -27 -9 -59 13 -73 23 -15 71 11 75 41 7 46 -66 73
-88 32z"/>
<path d="M4310 5450 c-11 -11 -20 -27 -20 -35 0 -16 34 -55 48 -55 23 0 52 34
52 60 0 47 -46 64 -80 30z"/>
<path d="M1958 5378 c-24 -20 -28 -44 -12 -67 17 -23 53 -28 72 -9 19 19 15
66 -7 78 -25 13 -34 13 -53 -2z"/>
<path d="M4453 5378 c-19 -25 -21 -46 -7 -67 20 -27 59 -27 78 1 20 29 20 34
-4 58 -23 23 -53 26 -67 8z"/>
<path d="M2172 5267 c-29 -18 -50 -35 -47 -38 3 -3 -1 -6 -8 -6 -7 0 -25 -8
-40 -17 -23 -16 -25 -21 -15 -40 24 -45 160 -237 167 -234 88 42 171 91 170
101 -1 17 -152 260 -164 264 -6 2 -34 -12 -63 -30z"/>
<path d="M4211 5271 c-11 -16 -50 -77 -86 -136 l-65 -108 81 -44 c45 -25 87
-42 94 -40 6 3 38 43 70 89 32 45 69 96 82 111 12 16 23 33 23 38 0 14 -62 49
-74 42 -6 -3 -8 -3 -4 2 7 7 -81 75 -96 75 -3 0 -14 -13 -25 -29z"/>
<path d="M4660 5205 c-31 -32 -36 -65 -11 -65 12 0 61 63 61 78 0 24 -19 19
-50 -13z"/>
<path d="M1780 5217 c0 -7 13 -28 29 -47 23 -27 32 -32 41 -23 10 9 6 19 -15
47 -27 36 -55 47 -55 23z"/>
<path d="M1610 5060 c0 -6 7 -24 15 -40 11 -21 20 -27 35 -23 20 5 20 6 2 37
-18 31 -52 48 -52 26z"/>
<path d="M4820 4977 c-25 -23 -205 -188 -400 -367 -195 -179 -449 -413 -565
-520 -224 -207 -353 -324 -450 -407 l-60 -51 3 576 c2 472 5 579 16 591 12 14
6 28 -50 106 -35 49 -64 93 -64 97 0 23 -23 -2 -89 -93 -50 -71 -69 -105 -62
-112 12 -12 16 -1287 5 -1287 -8 0 -97 51 -115 67 -15 13 -21 7 -54 -47 -20
-34 -36 -63 -34 -64 2 -2 57 -38 123 -79 l118 -76 18 21 c16 21 17 21 17 -15
0 -45 17 -67 52 -67 34 0 51 17 51 51 0 23 5 28 28 31 19 2 28 9 30 25 2 13
24 40 50 60 26 21 109 95 185 166 76 70 143 125 148 121 5 -3 8 0 7 8 -2 7 3
12 10 10 8 -1 11 2 8 6 -7 12 28 44 39 35 4 -5 5 -3 2 3 -9 16 189 208 205
198 7 -4 9 -3 5 1 -10 11 143 166 156 158 6 -3 7 -2 4 4 -8 13 67 86 77 76 4
-5 6 -3 4 4 -2 6 87 103 197 215 348 353 505 519 505 533 0 12 -59 65 -71 65
-2 0 -24 -19 -49 -43z"/>
<path d="M1430 4867 c0 -19 33 -47 53 -47 21 0 21 9 1 38 -17 24 -54 30 -54 9z"/>
<path d="M5131 4684 c-31 -26 -41 -54 -20 -54 18 0 69 40 69 55 0 26 -18 25
-49 -1z"/>
<path d="M1290 4691 c0 -14 61 -62 71 -55 16 9 10 32 -13 48 -25 18 -58 21
-58 7z"/>
<path d="M1177 4552 c-24 -26 -21 -47 10 -71 23 -19 29 -20 46 -8 30 20 38 51
21 76 -19 26 -55 27 -77 3z"/>
<path d="M5236 4554 c-36 -35 -2 -99 45 -87 42 11 44 81 3 97 -24 9 -31 8 -48
-10z"/>
<path d="M4925 4449 c-152 -103 -143 -83 -78 -191 24 -38 40 -55 52 -53 15 3
220 119 262 149 16 11 14 19 -34 99 -28 48 -55 87 -59 87 -4 0 -68 -41 -143
-91z"/>
<path d="M1367 4508 c-34 -56 -77 -139 -77 -149 0 -6 7 -8 16 -5 8 3 13 2 10
-2 -6 -10 223 -148 242 -146 6 1 12 -2 12 -8 0 -21 21 6 60 78 23 41 40 77 39
78 -16 13 -278 176 -282 176 -4 0 -13 -10 -20 -22z"/>
<path d="M1080 4320 c-20 -12 2 -36 47 -51 29 -9 37 -9 44 2 10 17 3 24 -42
43 -21 9 -41 11 -49 6z"/>
<path d="M5323 4305 c-23 -10 -31 -19 -27 -29 3 -9 10 -16 16 -16 20 0 68 31
68 45 0 18 -15 18 -57 0z"/>
<path d="M994 4089 c-9 -16 16 -38 52 -45 24 -4 33 -2 37 11 5 12 -2 20 -28
31 -41 17 -52 17 -61 3z"/>
<path d="M5422 4085 c-36 -16 -39 -38 -5 -43 25 -4 69 31 59 46 -9 15 -13 15
-54 -3z"/>
<path d="M943 3855 c-7 -20 -6 -21 45 -29 37 -5 42 -4 42 13 0 30 -76 44 -87
16z"/>
<path d="M5473 3863 c-7 -2 -13 -14 -13 -25 0 -18 4 -20 36 -15 43 7 48 11 41
32 -6 14 -38 19 -64 8z"/>
<path d="M912 3568 c2 -19 10 -24 41 -26 27 -2 39 1 44 13 8 22 -13 35 -55 35
-29 0 -33 -3 -30 -22z"/>
<path d="M5487 3583 c-4 -3 -7 -15 -7 -25 0 -21 38 -25 71 -8 34 18 23 40 -19
40 -21 0 -42 -3 -45 -7z"/>
<path d="M893 3443 c-53 -10 -72 -101 -30 -141 23 -21 30 -22 289 -22 l266 0
27 32 c32 38 29 81 -11 116 -25 22 -29 22 -272 21 -136 -1 -257 -4 -269 -6z"/>
<path d="M5033 3443 c-56 -11 -73 -106 -27 -142 26 -20 39 -21 296 -21 166 0
277 4 289 10 27 15 51 67 43 93 -3 12 -16 32 -27 45 -20 22 -23 22 -286 21
-146 -1 -276 -4 -288 -6z"/>
<path d="M916 3151 c-14 -23 7 -42 43 -39 29 2 37 8 39 26 3 20 -1 22 -37 22
-22 0 -42 -4 -45 -9z"/>
<path d="M5470 3141 c0 -23 36 -37 70 -26 38 12 20 40 -28 43 -37 3 -42 1 -42
-17z"/>
<path d="M950 2941 c-33 -9 -32 -35 2 -39 33 -4 68 13 68 33 0 16 -27 18 -70
6z"/>
<path d="M5464 2937 c-9 -25 4 -37 41 -37 60 0 58 34 -3 46 -24 5 -33 3 -38
-9z"/>
<path d="M1008 2698 c-27 -9 -37 -31 -20 -42 5 -3 25 -1 45 5 27 7 37 15 37
29 0 22 -18 24 -62 8z"/>
<path d="M5386 2695 c-6 -16 26 -34 68 -38 35 -3 31 29 -5 42 -43 15 -56 14
-63 -4z"/>
<path d="M4850 2468 c-18 -29 -41 -63 -53 -75 -11 -13 -18 -26 -14 -29 3 -3
72 -48 154 -100 136 -87 149 -93 161 -77 14 18 82 149 82 157 0 7 -283 176
-295 176 -2 0 -18 -24 -35 -52z"/>
<path d="M1485 2467 c-79 -43 -195 -116 -195 -124 0 -3 86 -156 96 -172 4 -6
238 142 261 165 12 12 25 19 29 15 5 -3 1 5 -7 19 -9 14 -31 51 -50 83 -18 31
-38 57 -44 57 -5 0 -46 -20 -90 -43z"/>
<path d="M1108 2444 c-30 -16 -37 -39 -14 -47 18 -7 79 30 73 46 -6 18 -28 18
-59 1z"/>
<path d="M5307 2453 c-21 -20 18 -53 63 -53 32 0 23 25 -15 43 -41 19 -39 19
-48 10z"/>
<path d="M1176 2244 c-39 -39 0 -98 49 -76 32 15 41 49 19 73 -21 23 -47 24
-68 3z"/>
<path d="M5236 2237 c-20 -30 -10 -66 22 -74 34 -8 56 8 60 43 6 50 -55 74
-82 31z"/>
<path d="M5115 2059 c-9 -14 34 -59 57 -59 25 0 23 16 -7 45 -26 27 -40 31
-50 14z"/>
<path d="M1308 2049 c-18 -10 -25 -59 -9 -59 16 0 61 41 61 56 0 16 -27 18
-52 3z"/>
<path d="M1452 1837 c-43 -46 -15 -66 34 -24 16 14 24 29 20 35 -11 18 -30 14
-54 -11z"/>
<path d="M4977 1845 c-6 -15 36 -55 58 -55 25 0 24 15 -2 42 -30 31 -48 35
-56 13z"/>
<path d="M1626 1659 c-27 -32 -31 -44 -18 -53 11 -7 72 52 72 70 0 24 -27 16
-54 -17z"/>
<path d="M4804 1679 c-7 -12 44 -69 63 -69 19 0 16 9 -13 47 -26 35 -38 40
-50 22z"/>
<path d="M2167 1638 c-48 -65 -117 -173 -116 -183 0 -5 28 -28 61 -50 34 -22
74 -48 88 -58 l27 -17 73 106 c62 91 71 108 57 116 -9 5 -47 33 -84 63 -38 30
-71 55 -75 55 -4 0 -18 -15 -31 -32z"/>
<path d="M1801 1496 c-31 -32 -35 -56 -8 -56 14 0 67 63 67 79 0 21 -27 10
-59 -23z"/>
<path d="M4640 1518 c0 -16 51 -68 67 -68 19 0 16 9 -13 47 -25 33 -54 44 -54
21z"/>
<path d="M1945 1360 c-15 -16 -17 -26 -9 -48 8 -22 15 -27 44 -27 29 0 36 5
45 29 8 24 6 31 -14 47 -30 24 -43 24 -66 -1z"/>
<path d="M4452 1373 c-26 -10 -33 -41 -17 -73 9 -16 21 -31 28 -31 24 -3 42 3
60 18 45 41 -12 110 -71 86z"/>
<path d="M2116 1287 c-22 -16 -25 -65 -5 -78 20 -12 53 -11 67 3 19 19 14 55
-10 72 -27 19 -29 19 -52 3z"/>
<path d="M4320 1287 c-33 -16 -38 -59 -11 -86 26 -26 32 -26 65 0 31 24 33 52
6 79 -23 23 -27 24 -60 7z"/>
<path d="M2340 1144 c-24 -55 -25 -64 -5 -64 17 0 69 85 60 100 -14 22 -35 8
-55 -36z"/>
<path d="M4084 1176 c-9 -22 32 -106 52 -106 13 0 15 6 9 27 -19 77 -48 114
-61 79z"/>
<path d="M2596 1068 c-27 -65 -29 -78 -11 -78 15 0 39 43 47 84 6 34 -22 29
-36 -6z"/>
</g>
</svg>
